<svg xmlns="http://www.w3.org/2000/svg" id="Layer_1" width="4.44in" height="1.99in" data-name="Layer 1" viewBox="0 0 319.55 142.95"><defs><style>.cls-1{fill:#fff}</style></defs><path d="M243.96 29.07c-.78-.84-3.9-1.57-4.67-1.83l-5.31-1.74-10.6-3.51-21.22-7-3.61-1.13c-6.39-2.1-18.27-5.27-16.54-10.66 1.54-4.69 11.54-3.01 17.54-2.44a340.35 340.35 0 0 1 111.27 30.23 15.18 15.18 0 0 1 8.07 8.74c2.49 7.33-2.54 11.56-7.15 15.15l-31.8 24.76c-12.26 9.54-24.58 19.13-38.27 26.47-5.09 2.74-10.63 5.21-16.54 4.12a11 11 0 0 1-7.64-5.05c-3.33-5.77.45-11.94 4-16.94l15.25-21.25a.88.88 0 0 0-.77-1.39 461.24 461.24 0 0 0-211.29 67.14c-5.45 3.36-11.56 7.13-18.2 7-2.11 0-4.15-.19-5.39-2.07-1.85-2.81-1.24-5.45 1-7.83.53-.57 1.11-1.1 1.69-1.62 63.94-57.62 148.05-92.4 234-96.77a15.82 15.82 0 0 0 3.7-.39c.7-.19 2.8-.69 2.66-1.71a.67.67 0 0 0-.18-.28Z" class="cls-1"/><path d="M47.55 142.99c9.84-6 19.15-12.62 29.62-17.75 21.15-10.37 43.2-18.72 66-23.41 1.45-.3 3.07-1.45 4.62-2.2-1.06-.48-1.86-1.4-3.23-1.37-10.81.22-22.2 3.29-33.64 7.18-21.87 7.45-41.2 17.66-57.55 30.85a93.26 93.26 0 0 0-6.9 6.7ZM318.47 64.26c.11.65-.62 1.48-1 1.87-1.74 1.89-4.14 3.13-6.18 4.62q-4.1 3-8.13 6.08c-5.79 4.43-11.42 9-17 13.73-1.56 1.3-3.35-.47-1.82-1.95a203.76 203.76 0 0 1 16-13.73c2.95-2.32 5.82-4.77 8.93-6.88.86-.6 8.76-5.49 9.2-3.74Z" class="cls-1"/></svg>