<svg xmlns="http://www.w3.org/2000/svg" viewBox="0 0 521 521">
  <path class="path" fill="rgba(255,255,255,1" stroke="rgba(255,255,255,1)" stroke-width="0"
    d="M520.96 103.16v393.76a24.15 24.15 0 01-24 24.08H23.63A23.69 23.69 0 01-.04 497.37V23.59A23.66 23.66 0 0123.59 0h301.7a23.7 23.7 0 0123.67 23.7v262c0 57-46.83 103.57-103.8 101.74a100.52 100.52 0 01-97.15-97.15c-1.84-57 44.74-103.8 101.74-103.8h11.46a17.75 17.75 0 0017.75-17.74v-31a18.25 18.25 0 00-18.21-18.29h-12.68c-93.11 0-170.3 76.25-169.57 169.4a168 168 0 00166.64 166.6c93.14.74 169.36-76.41 169.36-169.56V132.25A36.25 36.25 0 01450.75 96h63.09a7.17 7.17 0 017.12 7.16z" />
</svg>